Coordinates
version=1
nRows=31
nColumns=33
inDegrees=yes

Units are S.I. units (second, meters, Newtons, ...)
Angles are in degrees.

endheader
time	ground_thorax_rot_x	ground_thorax_rot_y	ground_thorax_rot_z	ground_thorax_tx	ground_thorax_ty	ground_thorax_tz	clav_prot_r	clav_elev_r	scapula_abduction_r	scapula_elevation_r	scapula_upward_rot_r	scapula_winging_r	shoulder_elv_r	plane_of_elev_r	axial_rot_r	elbow_flexion_r	pro_sup_r	wrist_flex_r	wrist_dev_r	clav_prot_l	clav_elev_l	scapula_abduction_l	scapula_elevation_l	scapula_upward_rot_l	scapula_winging_l	shoulder_elv_l	plane_of_elev_l	axial_rot_l	elbow_flexion_l	pro_sup_l	wrist_flex_l	wrist_dev_l	
10.3600	-37.136911	-5.290200	9.637290	-76.753382	769.241627	9.536227	0.545279	-45.000000	44.999999	-45.000000	-2.338150	-1535.877286	-2638.758515	151.222994	-112.636984	1089.338881	28.052564	17.624868	10.964500	17.603049	38.085544	-44.999971	-37.437864	-26.854232	2239.519706	-4253.794650	25.514037	-30.704525	727.552940	29.362089	8.044588	-18.550541	
10.3700	-37.191127	-5.266230	9.729067	-77.918431	769.488303	9.378533	0.572437	-45.000000	44.999999	-45.000000	-2.457426	-1535.968019	-2638.691670	151.210486	-112.624277	1089.395948	28.117382	17.662573	10.930933	17.635826	38.142888	-44.999949	-37.623136	-27.055339	2239.586643	-4253.762749	25.531245	-30.587151	727.643750	29.349165	8.034102	-18.603534	
10.3800	-37.251677	-5.238553	9.826523	-79.133984	769.784084	9.208757	0.608199	-45.000000	44.999998	-45.000000	-2.581203	-1536.073350	-2638.628015	151.189326	-112.616183	1089.456243	28.173954	17.702256	10.896680	17.678925	38.216924	-44.999908	-37.831281	-27.287729	2239.650696	-4253.727222	25.561817	-30.447419	727.741348	29.320111	8.021016	-18.658142	
10.3900	-37.316756	-5.215351	9.934175	-80.402801	770.132776	9.027849	0.646456	-45.000000	44.999997	-45.000000	-2.716385	-1536.177136	-2638.555792	151.174195	-112.611909	1089.525319	28.219485	17.743161	10.855793	17.731192	38.312665	-44.999835	-38.063037	-27.550783	2239.704175	-4253.685521	25.588477	-30.283225	727.846560	29.270383	8.006290	-18.714231	
10.4000	-37.381540	-5.187892	10.046827	-81.728309	770.537345	8.836882	0.691934	-45.000000	44.999995	-45.000000	-2.851548	-1536.295751	-2638.480511	151.150198	-112.615386	1089.594616	28.251538	17.784730	10.814683	17.792299	38.434992	-44.999704	-38.306336	-27.846348	2239.755168	-4253.634594	25.626398	-30.101197	727.955357	29.196156	7.987855	-18.769701	
10.4100	-37.448736	-5.174869	10.183875	-83.113440	770.999501	8.637123	0.748917	-45.000000	44.999990	-45.000000	-3.014926	-1536.420983	-2638.400491	151.129613	-112.631153	1089.667033	28.266306	17.824424	10.768418	17.876787	38.615912	-44.999470	-38.582260	-28.219657	2239.781245	-4253.569536	25.666534	-29.885232	728.071367	29.089187	7.961220	-18.821163	
10.4200	-37.516609	-5.166186	10.336327	-84.560982	771.519913	8.429868	0.817472	-45.000000	44.999983	-45.000000	-3.191318	-1536.562777	-2638.320428	151.106035	-112.663888	1089.738042	28.261825	17.862401	10.721769	17.970937	38.838438	-44.999051	-38.877750	-28.652486	2239.793868	-4253.489721	25.716182	-29.645228	728.192154	28.950072	7.928980	-18.869943	
10.4300	-37.585637	-5.161144	10.501973	-86.073042	772.098162	8.216438	0.893711	-45.000000	44.999969	-45.000000	-3.384806	-1536.709977	-2638.235668	151.082699	-112.711917	1089.807087	28.237626	17.898209	10.674539	18.071182	39.092697	-44.998298	-39.193692	-29.130580	2239.790371	-4253.398016	25.769226	-29.388850	728.311941	28.781942	7.892250	-18.915588	
10.4400	-37.653842	-5.148651	10.662038	-87.651453	772.733082	7.998055	0.969063	-45.000000	44.999945	-45.000000	-3.566720	-1536.862055	-2638.147544	151.057267	-112.772746	1089.878160	28.194674	17.934666	10.629913	18.158961	39.339691	-44.996956	-39.512563	-29.602418	2239.792006	-4253.303105	25.819998	-29.136960	728.433175	28.593604	7.855109	-18.962933	
10.4500	-37.721303	-5.131840	10.819051	-89.297448	773.422876	7.775866	1.044982	-45.000000	44.999902	-45.000000	-3.752028	-1537.013607	-2638.053070	151.025606	-112.842000	1089.950477	28.135174	17.971623	10.588845	18.249129	39.578469	-44.994533	-39.838507	-30.076529	2239.793861	-4253.204814	25.873084	-28.879031	728.549553	28.388838	7.814683	-19.009135	
10.4600	-37.785007	-5.100397	10.955931	-91.012151	774.165590	7.550871	1.113254	-45.000000	44.999824	-45.000000	-3.913918	-1537.164098	-2637.949884	150.989372	-112.918002	1090.025885	28.062429	18.010436	10.551511	18.318684	39.770210	-44.990246	-40.149392	-30.503228	2239.815078	-4253.107400	25.920613	-28.634209	728.663081	28.179690	7.777177	-19.059525	
10.4700	-37.842368	-5.059085	11.077577	-92.796797	774.959266	7.323928	1.178473	-45.000000	44.999685	-45.000000	-4.074869	-1537.310950	-2637.832924	150.940050	-112.991772	1090.102266	27.980063	18.051320	10.519788	18.388630	39.925550	-44.982418	-40.445843	-30.902394	2239.850897	-4253.008607	25.972899	-28.392010	728.764563	27.969935	7.735511	-19.108402	
10.4800	-37.893795	-5.013570	11.188767	-94.652776	775.802141	7.095774	1.242057	-45.000000	44.999437	-45.000000	-4.227258	-1537.457939	-2637.709207	150.886492	-113.065721	1090.179309	27.890418	18.092267	10.488698	18.445604	40.041698	-44.968810	-40.733488	-31.274466	2239.898798	-4252.913408	26.019432	-28.162612	728.867111	27.765315	7.691622	-19.159449	
10.4900	-37.943995	-4.987009	11.319870	-96.581665	776.692561	6.867033	1.319974	-45.000000	44.998990	-45.000000	-4.430705	-1537.608225	-2637.582231	150.823756	-113.132646	1090.258235	27.793907	18.133676	10.459147	18.541568	40.164857	-44.943280	-41.043722	-31.709792	2239.929858	-4252.809904	26.084627	-27.884522	728.966054	27.555059	7.631712	-19.202951	
10.5000	-37.986729	-4.971682	11.463087	-98.584791	777.629065	6.638224	1.405854	-45.000000	44.998193	-45.000000	-4.640471	-1537.765425	-2637.451427	150.764005	-113.209169	1090.327800	27.691732	18.170799	10.423238	18.619605	40.254564	-44.900772	-41.354928	-32.153832	2239.955452	-4252.700598	26.147036	-27.589570	729.073823	27.348337	7.575668	-19.251338	
10.5100	-38.025010	-5.005714	11.653777	-100.663332	778.610107	6.409747	1.519103	-45.000000	44.996758	-45.000000	-4.933568	-1537.930172	-2637.322428	150.696504	-113.274824	1090.397342	27.581647	18.207203	10.382594	18.747136	40.339058	-44.815630	-41.703177	-32.709325	2239.935356	-4252.565099	26.238272	-27.196283	729.177392	27.128637	7.510856	-19.294142	
10.5200	-38.053770	-5.061377	11.858440	-102.817424	779.634230	6.181968	1.643232	-45.000000	44.994207	-45.000000	-5.232836	-1538.096486	-2637.189498	150.634212	-113.356408	1090.456629	27.465051	18.239312	10.333466	18.830820	40.403353	-44.688228	-42.053687	-33.265897	2239.897703	-4252.414538	26.327041	-26.808139	729.284799	26.913388	7.457995	-19.343172	
10.5300	-38.076266	-5.189256	12.127431	-105.046618	780.699789	5.955302	1.806920	-45.000000	44.989582	-45.000000	-5.657006	-1538.263824	-2637.056818	150.559871	-113.420634	1090.520650	27.340983	18.272584	10.278798	18.954626	40.480274	-44.492594	-42.451341	-33.962260	2239.789578	-4252.219043	26.447090	-26.321219	729.379266	26.676523	7.399655	-19.384528	
10.5400	-38.091447	-5.312296	12.378769	-107.349302	781.805520	5.730363	1.966640	-45.000000	44.981455	-45.000000	-6.052327	-1538.419689	-2636.910380	150.495301	-113.516116	1090.577128	27.214033	18.304447	10.220996	18.984767	40.553142	-44.258440	-42.827428	-34.572336	2239.690135	-4252.019888	26.547770	-25.933809	729.474667	26.447613	7.359048	-19.433866	
10.5500	-38.100790	-5.504685	12.690502	-109.723786	782.950186	5.508137	2.162176	-45.000000	44.966453	-45.000000	-6.585164	-1538.567858	-2636.758309	150.416175	-113.583816	1090.646156	27.085171	18.341145	10.161046	19.044891	40.640157	-43.966737	-43.243427	-35.305242	2239.529610	-4251.780119	26.666487	-25.477548	729.554070	26.181366	7.313696	-19.474352	
10.5600	-38.110856	-5.647254	12.939384	-112.167607	784.133364	5.290090	2.323892	-45.000000	44.940824	-45.000000	-7.043344	-1538.689784	-2636.585600	150.349458	-113.694885	1090.712601	26.958224	18.380196	10.106714	18.991847	40.735209	-43.678675	-43.608573	-35.850752	2239.433243	-4251.573167	26.745341	-25.211338	729.634063	25.913995	7.283883	-19.521451	
10.5700	-38.121160	-5.826230	13.227681	-114.678705	785.354800	5.078223	2.495049	-45.000000	44.891443	-45.000000	-7.611992	-1538.794269	-2636.400344	150.273229	-113.766967	1090.796434	26.835709	18.427952	10.061437	18.975087	40.849750	-43.384895	-43.988590	-36.454512	2239.320954	-4251.356585	26.815010	-24.916405	729.702854	25.586149	7.235567	-19.555074	
10.5800	-38.132499	-5.935276	13.445576	-117.254049	786.614969	4.875033	2.621785	-45.000000	44.812674	-45.000000	-8.092190	-1538.871003	-2636.189557	150.209116	-113.886914	1090.875159	26.714898	18.478325	10.026336	18.871408	40.956983	-43.131213	-44.292009	-36.854360	2239.306329	-4251.184335	26.842066	-24.803695	729.770951	25.225159	7.203117	-19.593287	
10.5900	-38.120052	-6.116000	13.760556	-119.890628	787.914285	4.683397	2.786203	-45.000000	44.662189	-45.000000	-8.782436	-1538.928418	-2635.956874	150.113013	-113.962427	1090.961950	26.587491	18.529309	9.979113	18.832718	40.980597	-42.884243	-44.576865	-37.441317	2239.271883	-4250.951715	26.883521	-24.531532	729.819045	24.742761	7.191117	-19.625322	
10.6000	-38.087548	-6.269925	14.061399	-122.583888	789.253544	4.506397	2.934413	-45.000000	44.436479	-45.000000	-9.517584	-1538.948551	-2635.691506	149.996728	-114.096929	1091.035247	26.441942	18.574626	9.921473	18.741355	40.920034	-42.675260	-44.761160	-37.952590	2239.325642	-4250.714798	26.910930	-24.333527	729.853437	24.166600	7.228768	-19.665663	
10.6100	-38.029453	-6.479023	14.438802	-125.328860	790.633121	4.347132	3.121837	-45.000000	44.141635	-45.000000	-10.442463	-1538.956463	-2635.407419	149.836857	-114.210013	1091.106685	26.277609	18.616244	9.853618	18.703217	40.765026	-42.480889	-44.902442	-38.594743	2239.384641	-4250.429113	26.941365	-24.044614	729.869293	23.453592	7.279452	-19.697361	
10.6200	-37.974416	-6.616757	14.730104	-128.119190	792.053300	4.208520	3.269370	-45.000000	43.841180	-45.000000	-11.282594	-1538.953947	-2635.109147	149.669957	-114.408591	1091.162164	26.091135	18.654339	9.790037	18.616336	40.616436	-42.314057	-44.964983	-39.019790	2239.540228	-4250.190976	26.940923	-23.959267	729.875352	22.679032	7.348554	-19.731730	
10.6300	-37.911435	-6.766268	15.033704	-130.948559	793.513753	4.093088	3.438890	-45.000000	43.531934	-45.000000	-12.167782	-1538.969578	-2634.807936	149.478974	-114.585477	1091.215197	25.887391	18.689827	9.723809	18.561396	40.420706	-42.165798	-45.000000	-39.476252	2239.711699	-4249.942392	26.933622	-23.868590	729.871242	21.806226	7.409254	-19.756039	
10.6400	-37.864127	-6.848606	15.247907	-133.809932	795.013809	4.002743	3.571969	-45.000000	43.252077	-45.000000	-12.925329	-1538.995870	-2634.505684	149.297532	-114.804225	1091.259876	25.663690	18.724896	9.667023	18.477607	40.258866	-42.044906	-45.000000	-39.754802	2239.950047	-4249.749858	26.900081	-23.953607	729.864855	20.886023	7.461537	-19.776282	
10.6500	-37.824658	-6.914180	15.438183	-136.696559	796.552151	3.938623	3.710317	-45.000000	42.994298	-45.000000	-13.629806	-1539.048839	-2634.206151	149.120307	-114.981515	1091.304469	25.424401	18.761357	9.619229	18.414475	40.103360	-41.948199	-45.000000	-40.027584	2240.197048	-4249.571747	26.858820	-24.073038	729.855961	19.896013	7.484952	-19.782403	
10.6600	-37.802894	-6.929508	15.554579	-139.601331	798.127004	3.901022	3.813853	-45.000000	42.781376	-45.000000	-14.206120	-1539.114714	-2633.905641	148.968900	-115.174404	1091.346198	25.162004	18.799740	9.577388	18.324877	40.000846	-41.862232	-45.000000	-40.186136	2240.466086	-4249.433869	26.803842	-24.300095	729.846684	18.874704	7.511410	-19.790440	
